<svg xmlns="http://www.w3.org/2000/svg" viewBox="0 0 64 64" width="40" height="40">
  <!-- Bun bottom -->
  <ellipse cx="32" cy="40" rx="22" ry="14" fill="#c9a227"/>
  <!-- Bun top -->
  <path d="M10 36 C10 18 54 18 54 36 C54 40 50 42 32 42 C14 42 10 40 10 36 Z" fill="#e3c565"/>
  <!-- Sesame seeds -->
  <ellipse cx="22" cy="26" rx="2" ry="1.2" fill="#fff" transform="rotate(-20 22 26)"/>
  <ellipse cx="32" cy="22" rx="2" ry="1.2" fill="#fff" transform="rotate(10 32 22)"/>
  <ellipse cx="42" cy="27" rx="2" ry="1.2" fill="#fff" transform="rotate(-10 42 27)"/>
  <ellipse cx="27" cy="30" rx="2" ry="1.2" fill="#fff" transform="rotate(15 27 30)"/>
  <!-- Stethoscope tubing -->
  <path d="M22 38 C20 48 28 52 32 50 C36 52 44 48 42 38" fill="none" stroke="#0b2545" stroke-width="2.5" stroke-linecap="round"/>
  <!-- Earpieces -->
  <circle cx="22" cy="36" r="2.5" fill="#0b2545"/>
  <circle cx="42" cy="36" r="2.5" fill="#0b2545"/>
  <!-- Chest piece -->
  <circle cx="32" cy="51" r="4" fill="#0b2545"/>
  <circle cx="32" cy="51" r="1.6" fill="#e3c565"/>
</svg>
